# Blender v3.0.1 OBJ File: ''
# www.blender.org
mtllib boulder.mtl
o Cylinder
v 0.000000 2.000000 -0.076240
v 0.000000 0.900000 -1.000000
v 0.066025 2.000000 -0.038120
v 0.866025 1.200000 -0.500000
v 0.066025 2.000000 0.038120
v 0.866025 0.900000 0.500000
v 0.000000 2.000000 0.076240
v -0.000000 1.200000 1.000000
v -0.066025 2.000000 0.038120
v -0.866025 0.900000 0.500000
v -0.066025 2.000000 -0.038120
v -0.866025 1.200000 -0.500000
v 0.000000 0.000000 -0.884530
v 0.000000 0.100000 -1.000000
v 0.866025 0.100000 -0.500000
v 0.766025 0.000000 -0.442265
v 0.866025 0.100000 0.500000
v 0.766025 0.000000 0.442265
v -0.000000 0.100000 1.000000
v -0.000000 0.000000 0.884530
v -0.866025 0.100000 0.500000
v -0.766025 0.000000 0.442265
v -0.866025 0.100000 -0.500000
v -0.766025 0.000000 -0.442265
vt 1.000000 0.525000
vt 1.000000 0.800000
vt 0.833333 0.800000
vt 0.833333 0.525000
vt 0.500000 0.525000
vt 0.500000 0.800000
vt 0.333333 0.800000
vt 0.333333 0.525000
vt 0.166667 0.800000
vt 0.166667 0.525000
vt 0.666667 0.800000
vt 0.666667 0.525000
vt -0.000000 0.800000
vt -0.000000 0.525000
vt 0.923020 1.000000
vt 0.910313 1.000000
vt 0.756353 1.000000
vt 0.743647 1.000000
vt 0.589687 1.000000
vt 0.576980 1.000000
vt 0.423020 1.000000
vt 0.410313 1.000000
vt 0.256353 1.000000
vt 0.243647 1.000000
vt 0.089687 1.000000
vt 0.076980 1.000000
vt 0.265846 0.259149
vt 0.250000 0.268297
vt 0.234154 0.259149
vt 0.234154 0.240851
vt 0.250000 0.231703
vt 0.265846 0.240851
vt 0.842956 0.500000
vt 0.990377 0.500000
vt 0.676289 0.500000
vt 0.823711 0.500000
vt 0.509622 0.500000
vt 0.657044 0.500000
vt 0.342956 0.500000
vt 0.490377 0.500000
vt 0.176289 0.500000
vt 0.323711 0.500000
vt 0.009622 0.500000
vt 0.157044 0.500000
vt 0.750000 0.462287
vt 0.933846 0.356144
vt 0.933846 0.143856
vt 0.750000 0.037713
vt 0.566154 0.143856
vt 0.566154 0.356144
vn 0.5000 0.0000 -0.8660
vn -0.5000 0.0000 0.8660
vn -1.0000 0.0000 0.0000
vn 1.0000 0.0000 0.0000
vn 0.5000 0.0000 0.8660
vn -0.5000 0.0000 -0.8660
vn 0.2234 0.6340 -0.7404
vn 0.7529 0.6340 0.1767
vn 0.5295 0.6340 0.5636
vn -0.5295 0.6340 0.5636
vn -0.7529 0.6340 0.1767
vn -0.2234 0.6340 -0.7404
vn 0.0000 1.0000 0.0000
vn 0.3536 -0.7071 -0.6124
vn 0.7071 -0.7071 0.0000
vn 0.3536 -0.7071 0.6124
vn -0.3536 -0.7071 0.6124
vn -0.7071 -0.7071 0.0000
vn -0.3536 -0.7071 -0.6124
vn 0.0000 -1.0000 0.0000
usemtl stone
s off
f 14/1/1 2/2/1 4/3/1 15/4/1
f 19/5/2 8/6/2 10/7/2 21/8/2
f 21/8/3 10/7/3 12/9/3 23/10/3
f 15/4/4 4/3/4 6/11/4 17/12/4
f 17/12/5 6/11/5 8/6/5 19/5/5
f 23/10/6 12/9/6 2/13/6 14/14/6
f 4/3/7 2/2/7 1/15/7 3/16/7
f 6/11/8 4/3/8 3/17/8 5/18/8
f 8/6/9 6/11/9 5/19/9 7/20/9
f 10/7/10 8/6/10 7/21/10 9/22/10
f 12/9/11 10/7/11 9/23/11 11/24/11
f 2/13/12 12/9/12 11/25/12 1/26/12
f 3/27/13 1/28/13 11/29/13 9/30/13 7/31/13 5/32/13
f 14/1/14 15/4/14 16/33/14 13/34/14
f 15/4/15 17/12/15 18/35/15 16/36/15
f 17/12/16 19/5/16 20/37/16 18/38/16
f 19/5/17 21/8/17 22/39/17 20/40/17
f 21/8/18 23/10/18 24/41/18 22/42/18
f 23/10/19 14/14/19 13/43/19 24/44/19
f 13/45/20 16/46/20 18/47/20 20/48/20 22/49/20 24/50/20
